<?xml version="1.0" encoding="UTF-8" standalone="no"?>
<svg
   width="1109.9243"
   height="809.21942"
   viewBox="0 0 1109.9243 809.21942"
   version="1.1"
   id="svg13"
   sodipodi:docname="E2-2.svg"
   inkscape:version="1.3 (0e150ed6c4, 2023-07-21)"
   inkscape:export-filename="..\..\Website\HG-website\svg\E2-2.svg"
   inkscape:export-xdpi="96"
   inkscape:export-ydpi="96"
   xmlns:inkscape="http://www.inkscape.org/namespaces/inkscape"
   xmlns:sodipodi="http://sodipodi.sourceforge.net/DTD/sodipodi-0.dtd"
   xmlns="http://www.w3.org/2000/svg"
   xmlns:svg="http://www.w3.org/2000/svg">
  <sodipodi:namedview
     id="namedview13"
     pagecolor="#505050"
     bordercolor="#eeeeee"
     borderopacity="1"
     inkscape:showpageshadow="0"
     inkscape:pageopacity="0"
     inkscape:pagecheckerboard="0"
     inkscape:deskcolor="#d1d1d1"
     inkscape:zoom="1.2822917"
     inkscape:cx="1236.0682"
     inkscape:cy="466.74249"
     inkscape:window-width="1920"
     inkscape:window-height="1008"
     inkscape:window-x="-8"
     inkscape:window-y="-8"
     inkscape:window-maximized="1"
     inkscape:current-layer="svg13"
     showguides="true">
    <sodipodi:guide
       position="1301.6997,1081.6203"
       orientation="0,-1"
       id="guide107"
       inkscape:locked="false" />
  </sodipodi:namedview>
  <defs
     id="defs4" />
  <path
     style="color:#000000;fill:#ffffff;fill-opacity:1;stroke-width:0.885527;-inkscape-stroke:none"
     d="m 820.33041,399.45292 c -7.8045,0 -15.604,-0.81661 -23.1817,-2.42749 -7.3847,-1.56967 -14.6487,-3.9119 -21.5899,-6.96178 -6.8158,-2.99464 -13.3899,-6.70141 -19.5395,-11.01696 -6.0916,-4.27525 -11.8202,-9.18487 -17.0262,-14.59279 -5.2065,-5.40845 -9.9331,-11.35966 -14.0491,-17.68833 -4.1556,-6.38937 -7.7247,-13.2202 -10.6083,-20.30221 -2.9369,-7.21312 -5.1927,-14.76145 -6.7044,-22.43569 -1.5512,-7.87485 -2.3378,-15.9803 -2.3378,-24.09102 0,-7.70788 0.7121,-15.42031 2.1161,-22.92278 1.3689,-7.31448 3.4142,-14.53128 6.0791,-21.45023 l 0.2199,-0.5709 -0.4436,-0.41439 c -5.1625,-4.82345 -9.8641,-10.21269 -13.9744,-16.01809 -4.144,-5.85316 -7.7108,-12.16332 -10.6009,-18.75514 -2.9434,-6.71428 -5.207,-13.77125 -6.7269,-20.97473 -1.5618,-7.40155 -2.3537,-15.03211 -2.3537,-22.67956 0,-14.51099 2.0616,-28.24791 6.1275,-40.82937 4.0551,-12.54892 9.9953,-23.611026 17.6551,-32.879176 7.8372,-9.48224 17.2961,-16.85948 28.1141,-21.92667 11.3193,-5.30174 23.9726,-7.99006 37.6084,-7.99006 2.2721,0 4.629,0.0858 7.0057,0.25474 l 0.5253,0.0376 0.2796,-0.45479 c 4.3735,-7.11848 10.3461,-13.92982 17.7512,-20.24499 7.0954,-6.05069 15.2634,-11.44798 24.2773,-16.04161 8.8878,-4.52946 18.197,-8.0762297 27.6691,-10.5414397 9.6506,-2.51179 19.039,-3.78534 27.9044,-3.78534 11.4053,0 22.6014,1.95198 33.2772,5.80167 10.3178,3.7206997 19.9556,9.1374797 28.6456,16.0996197 l 0.4833,0.38712 0.5222,-0.33054 c 7.1382,-4.5216 14.8224,-8.01715 22.8391,-10.39003 8.2733,-2.44877 16.8718,-3.6902297 25.5568,-3.6902297 6.3165,0 12.6288,0.6609997 18.76129,1.9646697 5.9766,1.27033 11.8555,3.16599 17.4732,5.63416 5.5162,2.42374 10.8367,5.42365 15.8137,8.91652 4.9303,3.45998 9.5667,7.43381 13.7802,11.8107 4.2139,4.37732 8.0398,9.19396 11.3711,14.31614 3.3632,5.17141 6.252,10.69992 8.5858,16.43195 2.3772,5.83812 4.2029,11.94754 5.4263,18.15885 1.2556,6.37381 1.8923,12.93425 1.8923,19.499086 0,9.8176 -1.4099,19.50131 -4.1906,28.78234 l -0.1683,0.56214 0.4395,0.38015 c 5.1219,4.43095 9.7979,9.44425 13.8978,14.9007 4.1286,5.49446 7.6876,11.45781 10.5779,17.72427 2.9436,6.38195 5.2085,13.11195 6.7321,20.00321 1.5666,7.08638 2.3609,14.40079 2.3609,21.74013 0,10.08164 -1.4861,20.01535 -4.4169,29.52512 -2.8354,9.19988 -6.9853,17.89384 -12.3346,25.84073 -5.2788,7.8422 -11.6307,14.81837 -18.8787,20.73489 -7.3125,5.96909 -15.4029,10.74793 -24.0464,14.20387 l -0.4579,0.18316 -0.086,0.4934 c -1.9288,11.11975 -5.6943,21.71142 -11.1916,31.48086 -5.38,9.56062 -12.2468,18.03836 -20.4097,25.19804 -8.2212,7.21071 -17.47799,12.83699 -27.51309,16.72243 -10.3854,4.02122 -21.3227,6.06008 -32.5083,6.06008 -9.6832,0 -19.2264,-1.5392 -28.3643,-4.57442 -8.8388,-2.93574 -17.1958,-7.23323 -24.8385,-12.77282 l -0.6162,-0.44647 -0.5243,0.55489 c -5.2204,5.52412 -10.9782,10.54171 -17.1138,14.91385 -6.1931,4.41308 -12.8227,8.20475 -19.7043,11.26947 -7.009,3.12166 -14.3492,5.51948 -21.8163,7.12715 -7.6642,1.65003 -15.5551,2.48667 -23.4534,2.48667 z"
     id="path106" />
  <path
     style="color:#000000;fill:#ffffff;stroke-width:0.885527;-inkscape-stroke:none"
     d="m 874.52691,1.3024843 c -8.9065,0 -18.3308,1.27882 -28.0131,3.79883 -9.5032,2.47326 -18.841,6.0324597 -27.7566,10.5759397 -9.0418,4.60803 -17.2396,10.02284 -24.3636,16.09793 -7.4351,6.34074 -13.4384,13.18569 -17.8404,20.35064 l -0.1406,0.22695 -0.2621,-0.017 c -2.3865,-0.16965 -4.7526,-0.25671 -7.0354,-0.25671 -13.6923,0 -26.411,2.70013 -37.792,8.03065 -10.8767,5.09463 -20.39,12.5154 -28.2669,22.0458 -7.6987,9.31509 -13.665,20.428866 -17.736,33.026766 -4.0818,12.63061 -6.1497,26.41421 -6.1497,40.96836 0,7.67883 0.7943,15.34084 2.3629,22.77377 1.5262,7.23395 3.7999,14.32007 6.7561,21.06295 2.9023,6.61979 6.4841,12.95714 10.6457,18.83522 4.1278,5.83018 8.8486,11.2415 14.0333,16.08567 l 0.221,0.20774 -0.1097,0.28459 c -2.6749,6.94497 -4.7276,14.18894 -6.1016,21.53079 -1.4093,7.53053 -2.123,15.27004 -2.123,23.00598 0,8.14013 0.7887,16.27482 2.3457,24.17905 1.5173,7.70296 3.7808,15.27873 6.7288,22.51893 2.8944,7.10864 6.4779,13.96343 10.6492,20.37684 4.1314,6.35244 8.8756,12.32574 14.1017,17.75467 5.2257,5.42838 10.975,10.35721 17.0901,14.6488 6.1732,4.33218 12.7715,8.05326 19.6139,11.05961 6.9686,3.06176 14.2615,5.41247 21.6753,6.98832 7.1343,1.51668 14.4665,2.26483 21.8122,2.36038 l -0.125,0.0768 h 1.5833 c 7.9285,0 15.8484,-0.83993 23.5428,-2.49649 7.4965,-1.61402 14.865,-4.02033 21.9015,-7.15424 6.9085,-3.07668 13.5633,-6.88266 19.7802,-11.31263 6.159,-4.38894 11.939,-9.42512 17.1791,-14.97016 l 0.2621,-0.27754 0.3085,0.22345 c 7.6784,5.56552 16.0752,9.8834 24.9564,12.83326 9.1821,3.04988 18.7712,4.59667 28.5,4.59667 11.2379,0 22.2287,-2.04886 32.6636,-6.0893 10.0829,-3.90395 19.38419,-9.55749 27.64329,-16.80146 8.2006,-7.19266 15.1005,-15.71151 20.5049,-25.31567 5.5224,-9.81394 9.3062,-20.45486 11.2438,-31.62486 v 0 l 0.044,-0.24616 0.228,-0.0926 c 8.6847,-3.47249 16.8149,-8.27323 24.1614,-14.2701 7.2817,-5.94406 13.6633,-12.95428 18.9663,-20.83243 5.3737,-7.98336 9.5416,-16.71611 12.39,-25.95809 2.9441,-9.55347 4.4377,-19.53277 4.4377,-29.65918 0,-7.37216 -0.7973,-14.71891 -2.3713,-21.83802 -1.5305,-6.92307 -3.8058,-13.68418 -6.763,-20.09572 -2.9038,-6.29551 -6.4792,-12.28532 -10.6268,-17.80524 -4.119,-5.48184 -8.8155,-10.51838 -13.9614,-14.97016 l -0.221,-0.1903 0.084,-0.28103 c 2.7934,-9.32375 4.21,-19.05252 4.21,-28.91373 0,-6.594236 -0.639,-13.182756 -1.9002,-19.585966 -1.2292,-6.24 -3.0642,-12.37649 -5.4522,-18.24172 -2.3448,-5.75866 -5.2452,-11.31274 -8.624,-16.50818 -3.3466,-5.14595 -7.1899,-9.98396 -11.4235,-14.38175 -4.2333,-4.39736 -8.8913,-8.3897 -13.8449,-11.86612 -5.0006,-3.50949 -10.3459,-6.52389 -15.8889,-8.95934 -5.6448,-2.48014 -11.5521,-4.3851 -17.5576,-5.6616 -6.16279,-1.3100097 -12.50509,-1.9727097 -18.85159,-1.9727097 -8.7261,0 -17.3646,1.2456597 -25.6779,3.7062297 -8.0554,2.38441 -15.7764,5.89686 -22.9482,10.43981 l -0.2623,0.1659 -0.2417,-0.19379 c -8.7268,-6.99181 -18.4076,-12.43245 -28.7706,-16.1695197 -10.7227,-3.86658 -21.9684,-5.8274 -33.4226,-5.8274 z m 0,0.89384 c 11.3561,0 22.5027,1.94402 33.1315,5.77682 10.2725,3.7043497 19.8676,9.0972597 28.5205,16.0298097 l 0.7248,0.57957 0.7831,-0.49582 c 7.1044,-4.50014 14.7511,-7.97879 22.729,-10.34023 8.2332,-2.43698 16.7904,-3.67137 25.4346,-3.67137 6.2864,0 12.5705,0.65617 18.67319,1.95349 5.9475,1.26416 11.7978,3.15124 17.3883,5.60743 5.4895,2.41203 10.7846,5.39756 15.7381,8.87389 4.9067,3.44353 9.5223,7.39966 13.7162,11.75608 4.1942,4.35686 8.0032,9.1525 11.319,14.25088 3.3477,5.14738 6.2238,10.65086 8.5468,16.35625 2.366,5.81104 4.1829,11.8932 5.4007,18.0759 1.2499,6.34432 1.8832,12.8742 1.8832,19.409616 0,9.77398 -1.4027,19.41345 -4.1706,28.65185 l -0.2535,0.84325 0.6596,0.57081 c 5.0978,4.41021 9.7521,9.40106 13.8327,14.83223 4.1095,5.46888 7.6524,11.40543 10.5292,17.64293 2.93,6.35226 5.185,13.05117 6.7014,19.9106 1.5595,7.05367 2.3509,14.33607 2.3509,21.64253 0,10.03695 -1.4795,19.92427 -4.3968,29.39033 -2.8223,9.15768 -6.9539,17.81195 -12.2786,25.72237 -5.2547,7.80628 -11.5755,14.74973 -18.7898,20.63873 -7.2784,5.94127 -15.3314,10.69795 -23.9335,14.13736 l -0.6855,0.27405 -0.1302,0.74029 c -1.9202,11.06943 -5.6668,21.61194 -11.1391,31.33677 -5.3556,9.51718 -12.1912,17.95506 -20.3165,25.08175 -8.1832,7.17747 -17.39549,12.77559 -27.38279,16.64254 -10.3359,4.00208 -21.2186,6.03173 -32.3518,6.03173 -9.6375,0 -19.1336,-1.5324 -28.2276,-4.55305 -8.7963,-2.92161 -17.1147,-7.19908 -24.7217,-12.71276 l -0.9235,-0.66868 -0.7865,0.83101 c -5.2006,5.50329 -10.937,10.50301 -17.0489,14.85841 -6.1693,4.3961 -12.7746,8.17269 -19.6294,11.22542 -6.9816,3.10941 -14.2924,5.49874 -21.73,7.10006 -7.6341,1.64351 -15.4953,2.47728 -23.363,2.47728 -7.7745,0 -15.5446,-0.8134 -23.0923,-2.41792 -7.3557,-1.56352 -14.5915,-3.89806 -21.5056,-6.93596 -6.7892,-2.98293 -13.339,-6.67503 -19.465,-10.97406 -6.0682,-4.2588 -11.7752,-9.14973 -16.9615,-14.53718 -5.1868,-5.388 -9.8967,-11.31702 -13.9971,-17.62192 -4.14,-6.36533 -7.696,-13.1713 -10.5687,-20.22667 -2.926,-7.18605 -5.173,-14.70747 -6.6791,-22.35304 -1.5453,-7.84542 -2.3287,-15.92155 -2.3287,-24.00278 0,-7.67989 0.7089,-15.36578 2.1077,-22.84018 1.3637,-7.28715 3.4022,-14.47721 6.0571,-21.37017 l 0.3289,-0.8554 -0.6648,-0.62149 c -5.1402,-4.80271 -9.8222,-10.17058 -13.915,-15.95124 -4.1262,-5.82821 -7.6789,-12.11263 -10.5566,-18.67648 -2.9311,-6.68567 -5.1845,-13.71181 -6.6978,-20.8848 -1.5552,-7.37018 -2.3442,-14.97096 -2.3442,-22.58695 0,-14.46791 2.0551,-28.15674 6.1052,-40.68904 4.0393,-12.49986 9.9539,-23.510556 17.5748,-32.731696 7.7974,-9.43406 17.2027,-16.76866 27.9621,-21.80842 11.2577,-5.27286 23.8461,-7.94858 37.4253,-7.94858 2.261,0 4.6069,0.0848 6.9737,0.25314 l 0.7883,0.0572 0.4198,-0.68264 c 4.3449,-7.07199 10.2854,-13.84982 17.6605,-20.13933 7.0667,-6.02629 15.2066,-11.40517 24.1924,-15.98441 8.8601,-4.51543 18.1404,-8.0525397 27.5815,-10.5096197 9.619,-2.50356 18.9714,-3.77094 27.7956,-3.77094 z"
     id="path107" />
  <path
     d="m 820.33041,398.55908 c 7.8373,0 15.6672,-0.83011 23.272,-2.46744 7.4089,-1.59498 14.6918,-3.9743 21.6464,-7.07155 6.8285,-3.04113 13.407,-6.80375 19.5527,-11.18277 6.0891,-4.33917 11.8036,-9.31902 16.9846,-14.8015 l 1.0488,-1.10987 1.2322,0.8932 c 7.5704,5.48704 15.8477,9.74342 24.6019,12.65127 9.05,3.00599 18.5016,4.53035 28.0924,4.53035 11.0788,0 21.9113,-2.01928 32.1968,-6.00179 9.9395,-3.84844 19.10849,-9.42137 27.25229,-16.56424 8.0873,-7.09335 14.8907,-15.49298 20.2209,-24.96546 5.4468,-9.67924 9.1777,-20.17385 11.0889,-31.1917 l 0.1713,-0.98681 0.9156,-0.36621 c 8.5611,-3.42305 16.5746,-8.15676 23.8182,-14.06943 7.1808,-5.86155 13.4737,-12.7731 18.704,-20.54292 5.2999,-7.87367 9.4116,-16.48762 12.2209,-25.60302 2.9042,-9.42289 4.3766,-19.26633 4.3766,-29.25716 0,-7.2732 -0.7872,-14.52147 -2.3394,-21.54367 -1.5097,-6.82806 -3.7538,-13.4963 -6.6703,-19.81924 -2.8637,-6.20917 -6.3898,-12.11757 -10.4804,-17.5615 -4.0621,-5.40588 -8.6947,-10.37286 -13.7691,-14.76243 l -0.8794,-0.76067 0.3369,-1.12408 c 2.7552,-9.19641 4.1524,-18.79233 4.1524,-28.52135 0,-6.505916 -0.6309,-13.007196 -1.8751,-19.323256 -1.2123,-6.15429 -3.0213,-12.20757 -5.3764,-17.99206 -2.3125,-5.67922 -5.1746,-11.15686 -8.5069,-16.28073 -3.3006,-5.07505 -7.0911,-9.8471 -11.2659,-14.18412 -4.1744,-4.33629 -8.7675,-8.27287 -13.6517,-11.70048 -4.9299,-3.45971 -10.1999,-6.4312 -15.6636,-8.8317 -5.5636,-2.44457 -11.3858,-4.32191 -17.3047,-5.58017 -6.07399,-1.29097 -12.32579,-1.94571 -18.58229,-1.94571 -8.6021,0 -17.1184,1.22974 -25.312,3.65483 -7.9398,2.35009 -15.5505,5.81212 -22.6208,10.29054 l -1.0442,0.66144 -0.9666,-0.77425 c -8.6147,-6.90198 -18.1686,-12.27156 -28.3961,-15.9595497 -10.5816,-3.81581 -21.6791,-5.75062 -32.9845,-5.75062 -8.7922,0 -18.1076,1.26416 -27.6874,3.75762 -9.4115,2.44949 -18.6618,5.9736397 -27.4936,10.4746697 -8.953,4.56262 -17.0635,9.92156 -24.1067,15.92764 -7.3346,6.25492 -13.2461,12.99522 -17.5708,20.03405 l -0.5589,0.90957 -1.0504,-0.0751 c -2.3565,-0.16758 -4.6931,-0.25249 -6.9448,-0.25249 -13.5083,0 -26.0383,2.66079 -37.2419,7.90843 -10.6997,5.01169 -20.0562,12.3093 -27.8094,21.69035 -7.5873,9.18021 -13.473,20.142826 -17.4932,32.582866 -4.0365,12.4911 -6.0833,26.13399 -6.0833,40.54978 0,7.58461 0.7853,15.15172 2.3341,22.49168 1.5072,7.14286 3.7514,14.1404 6.6705,20.79791 2.8655,6.5365 6.402,12.79338 10.5111,18.59701 4.0754,5.75608 8.7371,11.09974 13.8558,15.88207 l 0.8872,0.82904 -0.4398,1.14171 c -2.645,6.86747 -4.6752,14.03072 -6.0338,21.29097 -1.3939,7.44748 -2.1006,15.10369 -2.1006,22.75542 0,8.05183 0.7808,16.09811 2.3206,23.9153 1.5005,7.61714 3.7395,15.10959 6.6546,22.26909 2.862,7.02918 6.4046,13.80888 10.529,20.15069 4.0853,6.28156 8.7768,12.18817 13.9443,17.55605 5.1669,5.36743 10.8521,10.24012 16.8976,14.48257 6.1024,4.28266 12.6258,7.96101 19.3891,10.93257 6.8872,3.02594 14.0946,5.35019 21.4219,6.90763 7.5187,1.5981 15.2579,2.40854 23.0024,2.40854 m 0,1.78769 c -64.0177,0 -115.9141,-53.90897 -115.9141,-120.41013 0,-15.79607 2.9324,-30.87831 8.2557,-44.69952 -20.835,-19.46656 -33.9401,-47.68462 -33.9401,-79.08629 0,-58.732586 33.8427,-104.519126 90.3823,-104.519126 2.3763,0 4.7313,0.0908 7.0669,0.25691 18.1788,-29.58763 62.0517,-51.03304973 98.3457,-51.03304973 23.5185,0 45.1795,8.24382003 62.4651,22.09247973 14.2369,-9.01789 30.9637,-14.2148697 48.8591,-14.2148697 51.90469,0 93.98109,43.7086197 93.98109,97.6259057 0,10.11444 -1.4801,19.86904 -4.2287,29.04336 20.7007,17.90759 33.8781,44.8791 33.8781,75.04958 0,41.56127 -25.0029,77.05002 -60.2334,91.13679 -7.9108,45.6025 -46.3084,80.19965 -92.48669,80.19965 -19.9726,0 -38.487,-6.47804 -53.7114,-17.51271 -21.0343,22.25838 -50.3217,36.07102 -82.7196,36.07102 z"
     stroke="none"
     fill="#e8daea"
     id="path9"
     style="stroke:#e6b9cf;stroke-width:0.885527;stroke-opacity:1" />
  <path
     id="Pfad_489"
     data-name="Pfad 489"
     d="m 867.02391,58.928294 c 14.2453,7.09629 26.7087,15.11639 40.9429,22.23581 0.1507,0.0749 1.241,0.0296 1.9826,0.074 -1.6793,-2.24614 -6.0828,-9.48022 -4.0041,-7.41255 5.6233,5.59363 6.4564,6.44437 7.9758,7.97478 0.2533,0.25615 0.6473,-0.3107 0.9737,-0.46236 a 73.643758,73.643758 0 0 0 -1.0126,-7.42735 32.559383,32.559383 0 0 0 -8.6702,-15.38733 44.532655,44.532655 0 0 1 -6.3287,-9.10387 2.2970039,2.2970039 0 0 1 0.5761,0.25892 c 8.2808,7.0103 16.7374,13.82734 24.7714,21.11043 6.0754,5.50856 12.0592,11.2372 16.0577,18.58687 3.3179,6.10315 5.0018,12.443026 2.5051,19.319236 a 21.00316,21.00316 0 0 1 -6.5591,8.97533 c -0.6371,0.53264 -1.2946,1.04679 -2.3238,1.88273 2.7048,0 4.9205,-0.13501 7.1093,0.0444 1.67,0.13593 4.3905,0.30608 5.8017,1.09302 4.8751,2.72145 8.7376,5.68518 13.4731,8.64798 a 5.2810746,5.2810746 0 0 1 1.6969,2.12131 c 1.1836,2.37653 2.2443,4.81409 3.353,7.22853 l -0.4549,0.21361 c -0.8055,-1.5563 -2.519,-2.21933 -3.2902,-3.79135 -1.1013,-2.24892 -2.8435,-3.64247 -4.9546,-5.12017 -2.1112,-1.47771 -3.6989,-3.20601 -5.8831,-4.55055 -4.95,-3.05158 -11.1244,-2.93691 -16.7957,-1.9826 -8.8773,1.49342 -17.0306,1.46291 -25.7433,3.61473 -8.0071,1.97798 -15.7812,5.05637 -23.4768,8.10702 a 206.84594,206.84594 0 0 0 -46.0686,25.32622 c -3.1838,2.32845 -6.2233,4.85478 -9.3313,7.28864 -0.3338,0.2617 -0.6778,0.51137 -1.0172,0.7666 l -0.3754,-0.33753 a 73.145334,73.145334 0 0 1 5.1997,-6.56551 c 3.4593,-3.50561 7.1342,-6.80501 10.8044,-10.09609 a 2.7658368,2.7658368 0 0 0 1.1411,-2.9739 18.856886,18.856886 0 0 1 -0.071,-5.69349 c 0.8369,-6.38519 1.1152,-7.6872 1.977,-14.06869 0.1711,-1.26594 0.5909,-7.64743 0.5946,-8.94574 0.014,-4.93431 -0.3236,-9.91207 0.2081,-14.79552 0.7962,-7.305276 -2.7695,-12.263626 -8.0053,-16.311126 -5.344,-4.13165 -11.854,-5.17843 -18.3853,-5.81371 -2.8074,-0.27187 -5.6408,-0.26632 -8.4639,-0.39486 -1.2604,-0.0573 -1.8652,0.45589 -2.0751,1.78101 -2.174,13.77093 -7.2424,27.504866 -9.1964,41.305386 -1.5849,11.1891 -2.8287,22.4411 -3.8394,33.70048 -1.1097,12.34594 -1.3085,24.72239 1.8004,36.87228 a 35.777408,35.777408 0 0 0 3.1441,7.8444 c 2.5994,4.87697 9.4451,6.79114 14.888,5.75545 7.7621,-1.47955 14.6845,-4.93153 21.1363,-9.37203 15.478,-10.6537 29.4708,-23.16701 43.9242,-35.10514 10.748,-8.87731 21.189,-18.16612 33.1142,-25.52226 0.504,-0.31071 1.032,-0.58073 1.5424,-0.88126 2.7344,-1.60809 5.1184,-1.51099 8.021,0.27187 8.6989,5.34395 18.4168,8.01824 28.4417,9.49687 a 25.748822,25.748822 0 0 1 10.01,3.32899 c 4.2029,2.58367 8.4899,5.00736 13.5407,5.65743 -0.031,0.22194 -1.0172,0.81838 -1.0514,1.03939 -2.1268,-0.1683 -3.2901,-0.71111 -5.7749,-0.90808 0.5003,0.95154 0.8868,1.74218 1.3205,2.50599 a 83.382907,83.382907 0 0 1 11.1115,44.83227 c -0.7093,19.76403 -7.6059,37.17928 -21.7476,51.24612 -4.2537,4.22967 -9.3748,7.60212 -14.2194,11.20483 -1.3094,0.97373 -2.1879,1.8818 -1.8587,3.51393 1.0644,5.27091 1.6368,10.72675 3.3974,15.7563 3.0516,8.73676 6.8568,17.21181 10.3458,25.79969 1.3612,3.35026 2.9415,6.63116 4.0262,10.06834 1.1421,3.61566 1.4851,7.32286 -0.5798,10.89413 -1.6931,2.92951 -4.6236,3.81724 -7.481,4.70127 -4.8695,1.50545 -9.9509,1.28259 -14.8879,0.70834 -11.6793,-1.35934 -23.291,-3.31605 -34.9785,-4.58846 -4.1816,-0.45496 -8.5241,0.16645 -12.7537,0.64083 -16.1706,1.81245 -30.0608,8.98088 -43.006,18.42227 -5.3032,3.8681 -10.8701,7.37464 -16.3148,11.0504 a 62.249361,62.249361 0 0 1 -6.5711,2.45051 c -3.93,0.70741 -7.1333,-0.73516 -9.9869,-3.15145 -4.6782,-3.95687 -7.7936,-9.11404 -10.1868,-14.61612 -3.7488,-8.61561 -7.4708,-17.27284 -10.5418,-26.14183 -1.8956,-5.47619 -2.7556,-11.34538 -3.734,-17.09714 a 135.33181,135.33181 0 0 1 -2.0556,-26.3055 86.461299,86.461299 0 0 1 12.2645,-42.16723 c 3.6887,-6.26775 9.0271,-15.45669 14.5847,-21.00686 -1.1513,0 -1.8725,-0.025 -2.5892,0 -7.3053,0.29222 -12.3996,-3.16624 -15.9052,-9.34891 -3.4917,-6.15309 -4.8307,-12.91834 -5.4466,-19.83432 -1.3408,-15.04889 -0.602,-26.43774 1.6026,-41.29706 3.0414,-20.51306 7.6049,-40.72281 12.3034,-60.902966 0.1451,-0.62048 0.2367,-1.25207 0.3939,-2.09911 -1.1097,0 -1.7292,0.0203 -2.899,0.0111 a 25.898627,25.898627 0 0 1 -7.3303,-0.88958 21.078062,21.078062 0 0 1 -6.5017,-3.73217 c -0.5382,-0.66765 -3.6813,-4.57737 -2.7325,-7.60675 a 31.934273,31.934273 0 0 1 3.3789,-7.48098 c 1.4555,-2.29885 9.2897,-9.86214 9.7456,-10.2348 5.7915,-4.72624 9.3637,-7.84995 16.46,-10.36796 4.0383,-1.43424 4.508,-1.36211 8.6332,-0.18494 4.189,1.19566 8.6055,1.66449 12.7121,3.06545 6.8966,2.35526 10.1109,5.1886 16.9039,7.84347 1.4546,0.5687 2.8667,1.23727 4.3767,1.8929 z"
     fill="#f2cbf6"
     stroke="#707070"
     stroke-width="0.184944"
     opacity="0.56"
     style="fill:#e6b9cf;fill-opacity:1;stroke:#e6b9cf;stroke-opacity:1" />
  <path
     id="Pfad_490"
     data-name="Pfad 490"
     d="m 950.72211,141.48542 c 2.6161,0 5.1785,-0.14888 7.7057,0.0416 2.4542,0.18494 4.3462,1.51746 6.0153,3.38447 2.6604,2.97945 5.5428,5.76008 8.3225,8.62856 0.1591,0.16368 0.2774,0.36249 0.7268,0.95524 a 20.814517,20.814517 0 0 1 -7.6548,-5.12202 c -2.1546,-2.28036 -4.0188,-4.98609 -7.2128,-5.94595 -2.5541,-0.76937 -5.1886,-1.28906 -7.9027,-1.94191 z"
     fill="#f2cbf6"
     stroke="#707070"
     stroke-width="0.184944"
     opacity="0.56"
     style="fill:#e6b9cf;fill-opacity:1;stroke:#e6b9cf;stroke-opacity:1" />
  <ellipse
     cx="338.95502"
     cy="344.76849"
     rx="271.845"
     ry="334.77802"
     stroke="none"
     id="ellipse3"
     style="display:inline;fill:#ffebff;fill-opacity:1;stroke:#42210b;stroke-opacity:0.4" />
  <path
     d="m 397.22641,235.6937 c -8.0581,4.06714 -21.59808,9.41444 -17.69428,17.72286 3.23398,6.88101 16.44828,4.87987 24.49158,2.58406 8.0434,-2.2958 7.917,-6.71568 20.7546,-9.88407 12.8375,-3.16843 41.1641,3.20525 76.1052,17.68715 17.0707,7.07523 33.8835,20.8647 45.2123,28.64011 9.8991,6.79412 18.7698,-4.25368 11.3673,-15.99833 -7.7935,-12.36505 -91.708,-42.70413 -116.7469,-45.87778 -25.039,-3.17365 -35.4317,1.05886 -43.4898,5.126 z"
     style="fill:#e6b9cf;fill-opacity:1"
     id="path181"
     sodipodi:nodetypes="zczzssszz" />
  <path
     d="m 273.92331,235.56856 c 7.90221,4.36229 21.2352,10.2065 17.02689,18.36491 -3.48614,6.75675 -16.61745,4.26839 -24.57039,1.6768 -7.95294,-2.59158 -7.66325,-7.0038 -20.37493,-10.64467 -12.71149,-3.64091 -41.25437,1.6811 -76.7071,14.86124 -17.32073,6.43916 -34.63182,19.59759 -46.24031,26.94882 -3.25224,2.05953 -6.33101,2.29009 -8.75511,1.27499 -5.13654,-2.15096 -7.33359,-9.89494 -2.0129,-17.68261 8.24537,-12.06841 93.22422,-39.28424 118.36337,-41.52993 25.13915,-2.24568 35.36826,2.36815 43.27048,6.73045 z"
     style="fill:#e6b9cf;fill-opacity:1"
     id="path278"
     sodipodi:nodetypes="zczzsssszz" />
  <path
     d="m 457.33341,316.63719 c -14.856,0 -26.8985,16.04145 -26.8985,30.89843 a 26.9,26.9 0 1 0 53.7989,0 c 0,-14.85698 -12.0445,-30.89843 -26.9004,-30.89843 z"
     style="fill:#262100"
     id="path54" />
  <path
     d="m 457.36071,326.72312 a 10.742,10.742 0 0 0 -10.7422,10.74219 10.742,10.742 0 0 0 10.7422,10.74219 10.742,10.742 0 0 0 10.7422,-10.74219 10.742,10.742 0 0 0 -10.7422,-10.74219 z"
     style="fill:#ffffff"
     id="path53" />
  <path
     d="m 455.69861,289.88719 c -11.887,0.18442 -23.2727,5.74905 -32.8887,12.40625 -10.9897,7.60821 -19.7543,16.73725 -24.289,21.27148 -0.5857,0.58576 -0.5857,1.53534 0,2.1211 0.5857,0.58563 1.5353,0.58563 2.1211,0 4.5891,-4.58876 13.1954,-13.53229 23.875,-20.92579 10.6794,-7.39348 23.3473,-13.1427 35.9472,-11.63086 20.8115,2.49711 32.5629,11.97411 39.4238,19.51954 4.1822,4.62467 7.7268,9.78856 10.5391,15.35351 0.3737,0.73952 1.2762,1.03599 2.0156,0.66211 0.7396,-0.37369 1.036,-1.2762 0.6621,-2.01562 -2.9337,-5.80517 -6.6311,-11.19159 -10.9941,-16.01563 v -0.002 c -7.1749,-7.89054 -19.7106,-17.89159 -41.2871,-20.48047 -1.7148,-0.20577 -3.425,-0.29002 -5.1231,-0.26367 z"
     style="fill:#262100;stroke-linecap:round;stroke-miterlimit:10"
     id="path17" />
  <path
     d="m 461.14001,352.2075 a 5,5 0 0 0 -5,5 5,5 0 0 0 5,5 5,5 0 0 0 5,-5 5,5 0 0 0 -5,-5 z"
     style="fill:#ffffff"
     id="path51" />
  <path
     d="m 410.14001,317.2075 1.6504,3.24609 11.1113,9.05469 1.3828,-1.26172 c 0,0 -2.6767,-0.23489 -3.7207,-1.71289 -0.717,-1.016 -5.6833,-4.58653 -8.0293,-6.76953 -1.066,-0.993 -2.3945,-2.55664 -2.3945,-2.55664 z"
     style="fill:#262100"
     id="path50" />
  <path
     d="m 420.81191,299.02 1.1797,4.30664 10.414,18.08008 2.3028,-1.2168 c 0,0 -3.7118,-2.54021 -4.4688,-5.0332 -0.521,-1.714 -4.862,-6.27657 -7.248,-11.85156 -0.814,-1.903 -2.1797,-4.28516 -2.1797,-4.28516 z"
     style="fill:#262100"
     id="path49" />
  <path
     d="m 401.94271,330.81883 1.8164,2.45898 11.752,9.16602 1.4805,-1.25781 c 0,0 -3.351,-0.80685 -4.459,-2.21485 -0.761,-0.969 -5.0215,-2.91993 -8.0215,-5.91992 -1.024,-1.024 -2.5684,-2.23242 -2.5684,-2.23242 z"
     style="fill:#262100"
     id="path48" />
  <path
     d="m 406.14001,325.2075 1.6465,2.26562 10.6875,8.5 1.3594,-1.14648 c 0,0 -3.0586,-0.7625 -4.0586,-2.0625 -0.694,-0.895 -4.5758,-2.71129 -7.3008,-5.48828 -0.934,-0.948 -2.334,-2.06836 -2.334,-2.06836 z"
     style="fill:#262100"
     id="path47" />
  <path
     d="m 430.06581,289.35203 2.0742,7.85547 9.5313,19.33789 2.9316,-1.06055 c 0,0 -3.8189,-2.32535 -4.4629,-5.27734 -0.443,-2.029 -5.817,-11.12301 -8,-16 -0.993,-2.218 -2.0742,-4.85547 -2.0742,-4.85547 z"
     style="fill:#262100"
     id="path46" />
  <path
     d="m 441.55021,283.61961 1.5898,8.58789 7.3594,20.78711 3.2285,-0.61914 c 0,0 -4.2669,-3.07498 -4.5879,-6.16797 -0.221,-2.126 -4.288,-11.71501 -6,-17 -0.779,-2.404 -1.5898,-5.58789 -1.5898,-5.58789 z"
     style="fill:#262100"
     id="path45" />
  <path
     d="m 455.14001,280.20555 -0.2363,9.19922 0.1074,23.71093 3.3027,-0.29883 c 0,0 -1.9675,-7.04355 -1.3535,-10.43554 0.42,-2.329 -1.2033,-12.06801 -1.2793,-18 0.022,-1.41071 -0.1607,-2.81714 -0.541,-4.17578 z"
     style="fill:#262100"
     id="path44" />
  <path
     d="m 413.14001,307.2075 0.9668,3.08789 11.752,14.74023 1.7812,-1.36523 c 0,0 -3.533,-1.40489 -4.5,-3.46289 -0.665,-1.414 -5.65,-7.82201 -8,-11 -0.5405,-0.78188 -1.2181,-1.45947 -2,-2 z"
     style="fill:#262100"
     id="path43" />
  <path
     d="m 504.14001,314.2075 c -0.6937,0.48553 -1.3145,1.06757 -1.8437,1.72852 -2.24,2.66999 -4.0986,4.45162 -4.7286,5.64062 -0.922,1.728 -7.2519,6.46094 -7.2519,6.46094 l 1.5,0.16992 6.5722,-5.90039 z"
     style="fill:#262100"
     id="path42" />
  <path
     d="m 491.40761,293.87742 c -0.7345,0.80996 -1.3483,1.72171 -1.8223,2.70703 -2.079,4.049 -6.5991,10.25648 -7.0801,11.98047 -0.7,2.508 -4.5527,6.76563 -4.5527,6.76563 l 1.1875,0.87695 7,-12 z"
     style="fill:#262100"
     id="path41" />
  <path
     d="m 480.17321,288.2075 c -0.6211,0.95965 -1.1013,2.0035 -1.4258,3.09961 -1.508,4.59999 -3.6074,10.90039 -4.6074,12.90039 -1.27,2.53999 -4.3164,8.5 -4.3164,8.5 l 2.3906,1.16406 6.9258,-20.66406 z"
     style="fill:#262100"
     id="path40" />
  <path
     d="m 469.14001,282.2075 c -0.5763,1.13387 -0.9861,2.34489 -1.2168,3.5957 -1.116,5.23399 -4.2715,13.55337 -4.3125,15.69336 -0.059,3.112 -3.0391,8.98633 -3.0391,8.98633 l 2.5684,0.72461 4,-18 z"
     style="fill:#262100"
     id="path39" />
  <path
     d="m 500.31581,304.2075 c 0,0 -2.1068,2.555 -3.1758,4 -2.35,3.17799 -5.8252,5.89941 -6.4902,7.31641 -0.967,2.05799 -4.834,5.14648 -4.834,5.14648 l 1.3242,0.53711 12.209,-13.91211 z"
     style="fill:#262100"
     id="path38" />
  <path
     d="m 507.39391,325.04734 c 0,0 -1.9686,1.55436 -2.9746,2.44336 -2.211,1.954 -5.3783,3.53174 -6.0313,4.42774 -0.948,1.29999 -4.4746,3.09179 -4.4746,3.09179 l 1.127,0.44727 11.3535,-8.42383 z"
     style="fill:#262100"
     id="path37" />
  <path
     d="m 512.98381,332.9282 c 0,0 -2.145,1.29969 -3.254,2.05469 -2.437,1.663 -5.7761,2.83363 -6.5351,3.64063 -1.1,1.17399 -4.8262,2.51171 -4.8262,2.51171 l 1.0586,0.58399 12.3164,-6.94336 z"
     style="fill:#262100"
     id="path36" />
  <path
     d="m 170.26892,317.2075 1.65039,3.24609 11.11328,9.05469 1.38086,-1.26172 c 0,0 -2.67771,-0.23489 -3.72071,-1.71289 -0.71799,-1.016 -5.6843,-4.58653 -8.02929,-6.76953 -1.067,-0.993 -2.39453,-2.55664 -2.39453,-2.55664 z"
     style="fill:#262100"
     id="path35" />
  <path
     d="m 180.94665,299.02 1.17969,4.30664 10.41406,18.08008 2.30273,-1.2168 c 0,0 -3.71075,-2.54021 -4.46875,-5.0332 -0.52099,-1.714 -4.86205,-6.27657 -7.24804,-11.85156 -0.815,-1.903 -2.17969,-4.28516 -2.17969,-4.28516 z"
     style="fill:#262100"
     id="path34" />
  <path
     d="m 162.07165,330.81883 1.81641,2.45898 11.75195,9.16602 1.48047,-1.25781 c 0,0 -3.35099,-0.80685 -4.45899,-2.21485 -0.76099,-0.969 -5.02344,-2.91993 -8.02343,-5.91992 -1.024,-1.024 -2.56641,-2.23242 -2.56641,-2.23242 z"
     style="fill:#262100"
     id="path33" />
  <path
     d="m 166.26892,325.2075 1.64843,2.26562 10.68555,8.5 1.36133,-1.14648 c 0,0 -3.05555,-0.7625 -4.06055,-2.0625 -0.7,-0.895 -4.57383,-2.71129 -7.29883,-5.48828 -0.93499,-0.948 -2.33593,-2.06836 -2.33593,-2.06836 z"
     style="fill:#262100"
     id="path32" />
  <path
     d="m 190.19665,289.35203 2.07227,7.85547 9.53125,19.33789 2.93164,-1.06055 c 0,0 -3.8179,-2.32535 -4.46289,-5.27734 -0.443,-2.029 -5.81701,-11.12301 -8,-16 -0.992,-2.218 -2.07227,-4.85547 -2.07227,-4.85547 z"
     style="fill:#262100"
     id="path31" />
  <path
     d="m 201.67907,283.61961 1.58985,8.58789 7.35937,20.78711 3.22852,-0.61914 c 0,0 -4.26689,-3.07498 -4.58789,-6.16797 -0.221,-2.126 -4.28701,-11.71501 -6,-17 -0.778,-2.404 -1.58985,-5.58789 -1.58985,-5.58789 z"
     style="fill:#262100"
     id="path30" />
  <path
     d="m 215.26892,280.20555 -0.23633,9.19922 0.10742,23.71093 3.30273,-0.29883 c 0,0 -1.96751,-7.04355 -1.35351,-10.43554 0.42,-2.329 -1.2033,-12.06801 -1.2793,-18 0.0216,-1.41071 -0.16065,-2.81715 -0.54101,-4.17578 z"
     style="fill:#262100"
     id="path29" />
  <path
     d="m 173.27282,307.2075 0.9668,3.08789 11.75,14.74023 1.7832,-1.36523 c 0,0 -3.533,-1.40489 -4.5,-3.46289 -0.664,-1.414 -5.65,-7.82201 -8,-11 -0.54024,-0.78212 -1.21788,-1.45976 -2,-2 z"
     style="fill:#262100"
     id="path28" />
  <path
     d="m 264.26501,314.2075 c -0.69373,0.48547 -1.31458,1.06752 -1.84375,1.72852 -2.24,2.66999 -4.09852,4.45162 -4.72852,5.64062 -0.92199,1.728 -7.25195,6.46094 -7.25195,6.46094 l 1.5,0.16992 6.57227,-5.90039 z"
     style="fill:#262100"
     id="path27" />
  <path
     d="m 251.53649,293.87742 c -0.7345,0.80997 -1.34825,1.72172 -1.82226,2.70703 -2.079,4.049 -6.60008,10.25648 -7.08008,11.98047 -0.706,2.508 -4.55273,6.76563 -4.55273,6.76563 l 1.1875,0.87695 7,-12 z"
     style="fill:#262100"
     id="path26" />
  <path
     d="m 240.30212,288.2075 c -0.62085,0.95981 -1.10099,2.00362 -1.42578,3.09961 -1.509,4.59999 -3.60743,10.90039 -4.60742,12.90039 -1.27,2.53999 -4.31641,8.5 -4.31641,8.5 l 2.38672,1.16406 6.92969,-20.66406 z"
     style="fill:#262100"
     id="path25" />
  <path
     d="m 229.26892,282.2075 c -0.57526,1.13412 -0.9844,2.34509 -1.21485,3.5957 -1.116,5.23399 -4.27345,13.55337 -4.31445,15.69336 -0.059,3.112 -3.03711,8.98633 -3.03711,8.98633 l 2.56641,0.72461 4,-18 z"
     style="fill:#262100"
     id="path24" />
  <path
     d="m 260.44079,304.2075 c 0,0 -2.10874,2.555 -3.17773,4 -2.349,3.17799 -5.82524,5.89941 -6.49024,7.31641 -0.966,2.05799 -4.83203,5.14648 -4.83203,5.14648 l 1.32813,0.53711 12.20898,-13.91211 z"
     style="fill:#262100"
     id="path23" />
  <path
     d="m 267.52282,325.04734 c 0,0 -1.96961,1.55436 -2.97461,2.44336 -2.21099,1.954 -5.37925,3.53174 -6.03125,4.42774 -0.94899,1.29999 -4.47656,3.09179 -4.47656,3.09179 l 1.12695,0.44727 11.35547,-8.42383 z"
     style="fill:#262100"
     id="path22" />
  <path
     d="m 273.11462,332.9282 c 0,0 -2.14686,1.29969 -3.25586,2.05469 -2.437,1.663 -5.77616,2.83363 -6.53516,3.64063 -1.1,1.17399 -4.82617,2.51171 -4.82617,2.51171 l 1.06055,0.58399 12.31445,-6.94336 z"
     style="fill:#262100"
     id="path21" />
  <path
     d="m 457.70641,309.54539 c -8.9841,0.0146 -18.3574,3.69512 -29.5664,12.66211 -5.441,4.353 -12.9992,14.99922 -19.2422,19.94922 -12.982,10.28799 -7.7206,6.31847 -16.1426,11.23047 -4.471,2.60999 -10.6394,1.39609 -10.9004,3.12109 v 0 c -0.1309,0.836 -1.1009,1.88242 0,2.23242 1.048,0.34 8.4041,5.32942 31.9571,-10.97656 18.247,-12.63299 21.1691,-22.6625 31.3281,-25.5625 6.122,-1.742 18.5125,-7.5546 35.3125,3.40039 15.977,10.42199 25.4272,38.12517 37.4082,37.20117 1.071,-0.082 4.0733,-0.53133 4.6113,-0.61133 4.298,-0.64199 15.5905,-2.32704 15.5645,-3.87304 -0.019,-1.194 -11.2642,-1.93519 -13.4492,-2.24219 -21.114,-2.963 -20.4504,-25.86923 -39.6504,-37.19922 -9.6545,-5.69549 -18.2503,-9.34665 -27.2344,-9.33203 z"
     style="fill:#262100"
     id="path20" />
  <path
     style="fill:#e6b9cf;fill-opacity:1"
     d="M 344.60001,0.00750427 C 82.813015,-1.3924957 1.4648438e-5,193.3235 1.4648438e-5,405.6705 c 0,219.2 23.863000351562,296.879 90.538000351562,335.48 7.674,4.443 35.792995,17.546 51.233995,4.211 15.44,11.931 57.551,25.968 61.762,21.055 3.682,-4.3 -32.36,-71 -41.918,-90.115 -9.124,-18.248 -68.407995,-191.765 -23.733,-436.3 19,-104 52.371,-130.589 106,-158.999996 57.946,-30.7 93,-1.685 93,-1.685 l 0.261,0.209 c 0,0 35.055,-29.012 93,1.685 53.63,28.410996 87,54.999996 106,158.999996 44.675,244.537 -14.609,418.054 -23.733,436.3 -9.557,19.116 -45.6,85.819 -41.917,90.115 4.211,4.913 46.321,-9.124 61.762,-21.055 15.44,13.335 43.559,0.232 51.234,-4.211 66.675,-38.6 90.537,-116.283 90.537,-335.48 0,-212.347 -82.817,-407.0669957 -344.6,-405.66299573"
     id="Pfad_535" />
  <path
     d="m 218.33923,316.13719 c -14.85599,0 -26.89844,16.04145 -26.89844,30.89843 a 26.9,26.9 0 1 0 53.79883,0 c 0,-14.85698 -12.04441,-30.89843 -26.90039,-30.89843 z"
     style="fill:#262100"
     id="path19" />
  <path
     d="m 218.31579,326.22312 a 10.742,10.742 0 0 0 -10.74219,10.74219 10.742,10.742 0 0 0 10.74219,10.74219 10.742,10.742 0 0 0 10.74024,-10.74219 10.742,10.742 0 0 0 -10.74024,-10.74219 z"
     style="fill:#ffffff"
     id="path18" />
  <path
     d="m 219.97399,289.38719 c -1.69814,-0.0263 -3.4062,0.0579 -5.12109,0.26367 -21.57545,2.58889 -34.11026,12.58993 -41.28516,20.48047 h -0.002 l -0.002,0.002 c -4.36296,4.82404 -8.06045,10.21044 -10.99414,16.01563 a 1.5,1.5 0 0 0 0.66211,2.01562 1.5,1.5 0 0 0 2.01562,-0.66211 c 2.81213,-5.5646 6.3573,-10.72908 10.53906,-15.35351 l 0.004,-0.004 c 6.86156,-7.54483 18.61284,-17.01893 39.41992,-19.51563 12.59988,-1.51184 25.26763,4.23737 35.94727,11.63086 10.67964,7.39351 19.28437,16.3371 23.87304,20.92579 a 1.5,1.5 0 0 0 2.1211,0 1.5,1.5 0 0 0 0,-2.1211 c -4.53431,-4.5343 -13.29729,-13.66326 -24.28711,-21.27148 -9.61609,-6.65721 -21.00357,-12.22184 -32.89063,-12.40625 z"
     style="fill:#262100;stroke-linecap:round;stroke-miterlimit:10"
     id="path16" />
  <path
     d="m 223.14001,352.2075 a 5,5 0 0 0 -5,5 5,5 0 0 0 5,5 5,5 0 0 0 5,-5 5,5 0 0 0 -5,-5 z"
     style="fill:#ffffff"
     id="path14" />
  <path
     d="m 446.53651,348.98094 a 3.5,3.5 0 0 0 -3.5,3.5 3.5,3.5 0 0 0 3.5,3.5 3.5,3.5 0 0 0 3.5,-3.5 3.5,3.5 0 0 0 -3.5,-3.5 z"
     style="fill:#ffffff"
     id="path12" />
  <path
     d="m 208.53649,348.98094 a 3.5,3.5 0 0 0 -3.5,3.5 3.5,3.5 0 0 0 3.5,3.5 3.5,3.5 0 0 0 3.5,-3.5 3.5,3.5 0 0 0 -3.5,-3.5 z"
     style="fill:#ffffff"
     id="path11" />
  <path
     d="m 217.97204,309.0493 c -8.98411,-0.0146 -17.57988,3.63653 -27.23437,9.33203 -19.19998,11.32999 -18.53742,34.23622 -39.65039,37.19922 -2.186,0.307 -13.43218,1.04819 -13.45118,2.24218 -0.025,1.546 11.26841,3.23105 15.56641,3.87305 0.537,0.08 3.54033,0.52933 4.61133,0.61133 11.98099,0.924 21.42926,-26.77918 37.40625,-37.20117 16.79998,-10.95499 29.19246,-5.14239 35.31445,-3.40039 10.15899,2.89999 13.08014,12.92951 31.32813,25.5625 23.55297,16.30598 30.90903,11.31656 31.95703,10.97656 1.098,-0.354 0.127,-1.40033 0,-2.23633 -0.261,-1.725 -6.4294,-0.5111 -10.90039,-3.12109 -8.42199,-4.912 -3.15964,-0.94248 -16.14063,-11.23047 -6.24099,-4.946 -13.80119,-15.59232 -19.24219,-19.94531 -11.20898,-8.96699 -20.58033,-12.64749 -29.56445,-12.66211 z"
     style="fill:#262100"
     id="path10" />
  <ellipse
     cx="606.21436"
     cy="178.90169"
     rx="13.049747"
     ry="13.422597"
     fill="none"
     id="ellipse12"
     style="fill:#ffffff;fill-opacity:1;stroke:#e6b9cf;stroke-width:1.34226;stroke-dasharray:none;stroke-opacity:1" />
  <ellipse
     cx="650.05481"
     cy="148.40364"
     rx="16.863331"
     ry="17.34514"
     fill="none"
     id="ellipse12-7"
     style="fill:#ffffff;fill-opacity:1;stroke:#e6b9cf;stroke-width:1.73452;stroke-dasharray:none;stroke-opacity:1" />
  <path
     d="m 141.03063,426.11766 c -3.03681,-0.0866 -7.50382,2.83437 -9.21289,6.5 -1.82299,3.90999 -1.17773,7.08984 0.82227,12.08984 2,5 11,9 11,9 l 27.36523,-17.51563 c 0,1e-5 -4.35875,-3.48393 -7.96875,-4.71093 -3.60999,-1.227 -6.40039,-2.77344 -10.40039,-3.77344 -3.99999,-1 -8.00158,-1.00025 -11.01757,-1.53125 -0.1885,-0.0332 -0.38544,-0.0528 -0.5879,-0.0586 z"
     style="fill:#fcd6ce"
     id="path7" />
  <path
     d="m 518.70841,424.57664 c -6.7535,0 -10.5368,2.0623 -14.543,4.24609 -1.1533,0.6287 -2.3465,1.27949 -3.6016,1.86719 -6.0968,2.8552 -15.0022,9.44208 -18.7226,12.92188 l -9.9824,10.28711 -2.4512,2.52343 0.709,-3.2207 c -0.1659,-0.6306 -0.777,-2.40385 -2.0586,-4.18945 -1.9852,-2.7664 -4.7124,-4.49296 -8.1035,-5.13086 -1.6953,-0.3186 -4.2916,-1.0867 -7.5782,-2.0586 -4.6151,-1.36449 -10.358,-3.06293 -15.7519,-4.11523 -4.2501,-0.8291 -12.1696,-3.37013 -19.8281,-5.82813 -8.9977,-2.88769 -18.3025,-5.87405 -21.3458,-6.00195 -0.7477,-0.0313 -1.6318,-0.0883 -2.6562,-0.1543 -2.5079,-0.16219 -5.9434,-0.38281 -10.0391,-0.38281 -4.21797,0 -8.25412,0.22712 -12.34176,0.69531 -5.04242,0.5774 -10.09541,1.52904 -15.01758,2.83204 -8.85332,2.34349 -16.00299,3.523 -22.31055,4.5625 -7.61669,1.25569 -13.63148,2.24618 -19.55273,4.76757 l -0.23633,0.10157 -0.25391,-0.0254 c -0.16364,-0.0159 -16.56239,-1.60157 -33.36718,-1.60157 -8.25867,0 -15.28437,0.37916 -20.88086,1.12696 -18.97673,3.46099 -47.62195,8.78539 -49.83008,9.46679 l -7.39453,4.67188 -0.64649,0.4082 -0.56445,-0.51562 -6.80273,-6.23633 c -1.97168,-1.0583 -3.79164,-2.12009 -5.55274,-3.14649 -4.46252,-2.60029 -8.67646,-5.05595 -14.58203,-7.03125 -3.41681,-1.14259 -6.68562,-1.72265 -9.71484,-1.72265 -3.02442,0 -5.7641,0.56549 -8.14258,1.67969 l -0.33203,0.15625 c -4.04383,1.88719 -10.81128,5.04569 -12.10352,13.14648 -0.63934,4.0078 -0.67127,6.56867 -0.11719,9.44727 0.57421,2.98339 1.76667,6.26271 3.74414,11.69531 0.41131,1.1299 0.83655,2.29608 1.30079,3.58398 l 39.83203,75.18946 0.36914,0.69726 -0.5918,0.52149 c -0.0734,0.0647 -7.36335,6.49314 -9.49023,9.49414 -1.54858,2.18429 -1.91952,5.30811 -2.00782,6.63281 l 32.38477,14.67969 h -0.006 c 0.0526,0.0234 5.32898,2.37304 10.65625,4.80664 10.92314,4.98999 11.39905,5.4468 11.6543,5.6914 0.71771,0.6878 5.70496,3.82027 12.64843,5.53907 4.35278,1.07829 11.22077,4.64356 17.2793,7.78906 3.67321,1.907 6.84528,3.55445 8.70703,4.25195 3.45728,1.2956 4.77429,3.80172 5.73633,5.63281 0.47278,0.8999 0.88104,1.67753 1.33594,1.89063 1.12195,0.5252 2.34515,2.15137 4.24804,4.75976 1.61297,2.2112 3.44074,4.71707 4.85743,5.60157 3.33409,2.08279 6.30072,4.79444 10.77539,11.86914 2.48455,3.92729 9.6275,11.04738 15.92968,17.33008 5.24414,5.22749 9.7724,9.7434 11.58008,12.2832 3.96386,5.56909 16.88946,25.07293 17.01953,25.26953 l 0.0449,0.0684 0.0332,0.0742 c 0.0198,0.0439 2.01251,4.4654 4.81836,8.875 1.62878,2.5596 3.20575,4.6106 4.6875,6.0957 1.73926,1.7431 3.30268,2.67267 4.64844,2.76367 0.6034,0.041 1.31927,0.0625 2.12695,0.0625 l 0.004,-0.002 c 4.95507,0 12.33172,-0.74394 19.73242,-1.99023 9.63539,-1.6226 19.22879,-4.04909 27.74409,-7.01758 9.3341,-3.2539 14.2414,-6.3309 19.4356,-9.58789 6.578,-4.1248 13.3794,-8.39064 29.5976,-13.42383 21.1235,-6.55559 52.5398,-17.61035 71.3106,-24.21485 6.1211,-2.15379 10.9571,-3.85524 13.664,-4.77734 5.0029,-1.7044 16.2337,-5.79571 28.125,-10.12891 14.3951,-5.24569 29.2802,-10.66967 35.8438,-12.85937 8.6434,-3.677 14.8489,-5.33422 18.5586,-6.32422 1.0404,-0.2776 1.8611,-0.49681 2.4961,-0.69531 1.0084,-0.3149 1.3308,-1.74457 1.4238,-2.88867 0.1191,-1.4675 -0.1113,-2.86982 -0.1113,-2.88282 l -0.024,-0.14257 0.016,-0.14258 c 0,-0.082 0.9718,-8.41818 -0.01,-25.03906 -0.4056,-6.8681 -4.0442,-25.32353 -10.5234,-53.3711 -4.7879,-20.72578 -9.5184,-39.71965 -9.7832,-40.78125 l -9.6387,-27.41797 -0.025,-0.0781 -0.016,-0.082 c 0,-0.0286 -0.5104,-2.89648 -1.6641,-6.17188 -1.4861,-4.21949 -3.3606,-7.20481 -5.4199,-8.63281 -5.1932,-3.6023 -13.4512,-4.49977 -13.5332,-4.50977 l -0.09,-0.01 -0.088,-0.0273 c -0.04,-0.0115 -4.0109,-1.17912 -9.6836,-3.26171 -5.2358,-1.9221 -13.0445,-5.04124 -20.5039,-8.99024 -5.6161,-2.9726 -8.7133,-5.24098 -10.9747,-6.89648 -1.7575,-1.2866 -3.026,-2.21661 -4.6445,-2.87891 -1.7031,-0.6971 -3.7941,-1.10056 -6.9902,-1.35156 -0.9812,-0.0772 -1.9415,-0.11719 -2.8535,-0.11719 z"
     style="fill:#fff4ff;fill-opacity:1;stroke-miterlimit:10"
     id="path6" />
  <path
     style="opacity:0.5;fill:#42210b;fill-opacity:1;stroke:#42210b;stroke-width:0;stroke-dasharray:none;stroke-opacity:1"
     d="m 518.70881,425.5803 c -6.4987,0 -10.174,2.0034 -14.0654,4.1245 -1.1662,0.6358 -2.3724,1.2932 -3.6553,1.8941 -5.999,2.8093 -14.7657,9.2927 -18.4472,12.7309 l -9.5908,9.8823 -0.2486,0.9934 -2.1848,1.79178 -1.0878,-1.80748 c -0.2872,-0.7652 -1.3624,-4.46691 -2.2423,-5.67301 -1.8259,-2.5031 -4.321,-4.0674 -7.4162,-4.6496 -1.7454,-0.3282 -4.3627,-1.1021 -7.6763,-2.0821 -4.595,-1.3586 -10.3135,-3.0495 -15.661,-4.0925 -4.308,-0.8406 -11.9022,-3.2778 -19.9423,-5.8581 -8.5183,-2.7339 -18.1732,-5.8326 -21.0815,-5.9546 -0.759,-0.032 -1.6489,-0.089 -2.6793,-0.156 -2.4944,-0.1612 -5.9106,-0.3819 -9.974,-0.3819 -4.17972,3e-4 -8.1799,0.2256 -12.22928,0.6892 -4.99469,0.5721 -9.99939,1.5164 -14.875,2.8067 -8.89929,2.3557 -16.07337,3.5383 -22.40308,4.5818 -7.55041,1.2443 -13.51428,2.2275 -19.32507,4.7019 l -0.47009,0.2002 -0.5083,-0.05 c -0.16333,-0.016 -16.51795,-1.5972 -33.27027,-1.5972 -8.20337,2e-4 -15.17541,0.3752 -20.72363,1.1147 -17.84436,3.2547 -46.57373,8.5928 -49.57727,9.4041 l -8.56348,5.4092 -7.8374,-7.1849 c -1.94446,-1.0466 -3.73706,-2.091 -5.47278,-3.1025 -4.41687,-2.5737 -8.58874,-5.0046 -14.3966,-6.9473 -3.31446,-1.1084 -6.4762,-1.6704 -9.39747,-1.6704 -2.87683,0 -5.47338,0.5332 -7.71814,1.585 l -0.33337,0.1558 c -1.94385,0.9069 -4.60608,2.1496 -6.88074,4.124 -2.60803,2.2639 -4.13195,4.9704 -4.65905,8.2739 -1.19849,7.5132 -0.28113,10.0337 3.58044,20.6419 0.40466,1.1115 0.82251,2.2595 1.27795,3.5227 l 40.53785,76.52 -1.18482,1.0427 c -2.01709,1.7754 -7.6261,6.9111 -9.33581,9.3235 1.01679,2.77988 5.47071,5.3932 6.78096,6.8139 l 23.18193,13.0032 c 0.0526,0.024 5.33313,2.3753 10.66479,4.8108 11.07739,5.0603 11.55066,5.5139 11.93042,5.8782 0.65064,0.6233 5.54578,3.6443 12.19727,5.2908 4.46777,1.1069 11.39062,4.7011 17.49853,7.872 3.49292,1.8135 6.79199,3.5264 8.59741,4.2027 3.81421,1.4297 5.29273,4.2436 6.27112,6.1057 0.27136,0.5166 0.67981,1.2937 0.89392,1.4587 1.3385,0.6363 2.5658,2.26 4.6128,5.0659 1.4823,2.032 3.32714,4.5611 4.57983,5.3431 3.45361,2.1574 6.51343,4.9482 11.0896,12.1831 2.42468,3.8327 9.52563,10.9113 15.79065,17.1567 5.27624,5.2598 9.83289,9.8022 11.68957,12.4109 3.97376,5.5828 16.50635,24.4946 17.03785,25.2971 l 0.0907,0.1367 0.0671,0.1499 c 0.0194,0.043 1.97254,4.3802 4.73767,8.729 4.69947,7.3911 7.56018,8.3482 8.57215,8.4165 0.58044,0.039 1.27319,0.059 2.05896,0.059 4.90271,0 12.21716,-0.7387 19.56634,-1.9763 9.58094,-1.6135 19.11854,-4.0256 27.58144,-6.9758 9.2277,-3.2171 14.0876,-6.2644 19.2326,-9.4908 6.6323,-4.1586 13.4904,-8.4592 29.833,-13.531 21.1056,-6.5502 52.5114,-17.6003 71.2757,-24.2028 6.1237,-2.1546 10.9605,-3.8565 13.6722,-4.7803 4.9928,-1.7007 16.2199,-5.792 28.1061,-10.1233 14.3723,-5.2373 29.232,-10.6523 35.829,-12.855 8.6903,-3.6941 14.9264,-5.3584 18.6566,-6.3537 1.029,-0.2747 1.8418,-0.4917 2.4569,-0.6839 0.2836,-0.088 0.6168,-0.7366 0.7225,-1.9853 0.114,-1.3455 -0.097,-2.657 -0.099,-2.6663 l -0.048,-0.2805 0.034,-0.2891 c 0.01,-0.082 0.9638,-8.3591 -0.011,-24.8618 -0.9625,-16.2991 -19.5116,-90.8872 -20.2685,-93.9243 l -9.6768,-27.5291 -0.028,-0.1628 c -0.01,-0.028 -0.5034,-2.8396 -1.6336,-6.04 -1.414,-4.0049 -3.1554,-6.8111 -5.0361,-8.1153 -4.9753,-3.4511 -12.988,-4.3298 -13.0671,-4.3381 l -0.1807,-0.019 -0.1743,-0.051 c -0.1624,-0.048 -4.0437,-1.1888 -9.7478,-3.2827 -5.2649,-1.9327 -13.117,-5.0711 -20.6259,-9.0462 -5.6803,-3.0066 -8.8115,-5.2988 -11.0977,-6.9724 -1.7637,-1.291 -2.9288,-2.144 -4.434,-2.76 -1.6017,-0.6555 -3.6023,-1.0388 -6.6893,-1.2813 -0.9557,-0.075 -1.8892,-0.1132 -2.7745,-0.113 v 0 m 0,-2 c 0.9233,-2e-4 1.8975,0.038 2.9312,0.1191 11.163,0.877 8.655,3.647 23,11.24 14.345,7.594 30,12.177 30,12.177 0,0 8.5259,0.887 14,4.6841 5.474,3.7959 7.5,15.4551 7.5,15.4551 l 9.653,27.4609 c 0,0 19.347,77.448 20.347,94.3809 1,16.9331 0,25.218 0,25.218 0,0 1,5.9551 -2,6.8921 -3,0.937 -10,2.3169 -21,7 -12,4 -53,19.2529 -64,23 -11,3.7471 -56.9741,20.302 -85,29 -29,9 -27.787,15.605 -49,23 -21.213,7.3948 -42.99991,9.4712 -50.00003,9 -7,-0.4729 -15,-18.323 -15,-18.323 0,0 -13,-19.6221 -17,-25.2419 -4,-5.6202 -23,-22.48 -27.54102,-29.658 -4.5391,-7.17749 -7.45805,-9.68159 -10.45805,-11.55569 -3,-1.873 -7,-9.3669 -9,-10.3029 -2,-0.937 -2,-5.6199 -7,-7.4939 -5,-1.8731 -19,-10.303 -25.875,-12.0061 -6.875,-1.7019 -12.125,-4.854 -13.09998,-5.7881 -0.97399,-0.9339 -22.02502,-10.3059 -22.02502,-10.3059 l -24.17696,-13.30368 c 0,0 -8.82304,-6.36722 -6.60405,-9.49742 2.219,-3.1308 9.646,-9.6679 9.646,-9.6679 l -39.86499,-75.25 c -5,-13.875 -6.41406,-16.427 -5,-25.291 1.41406,-8.864 9,-12.177 13,-14.0501 4.00012,-1.874 10.19617,-2.8096 18.59802,0 8.40198,2.8101 13.40198,6.5571 20.40198,10.303 l 6.89502,6.321 7.49292,-4.7329 c 1.88708,-0.7541 50.11206,-9.549 50.11206,-9.549 6.29968,-0.8433 13.72729,-1.1385 21.03503,-1.1387 17.05225,0 33.46497,1.6067 33.46497,1.6067 11,-4.6841 22.5,-4.2151 42,-9.377 19.50018,-5.1611 34.5001,-3.2678 40.353,-3.0229 5.852,0.2458 32.147,10.0578 41.323,11.8479 9.1761,1.79 19.282,5.4121 23.324,6.1721 9.0322,1.699 11.0162,10.2317 11.0004,10.3035 l -4e-4,4e-4 v 0 c 2e-4,0 2e-4,0 4e-4,-4e-4 l 9.9996,-10.3035 c 4,-3.7471 13,-10.3042 19,-13.114 5.4443,-2.5498 9.5204,-6.2073 18.5688,-6.2073 z"
     id="path13" />
  <path
     style="opacity:0.5;fill:none;fill-opacity:0.4;stroke:#42210b;stroke-width:1.4;stroke-dasharray:none;stroke-opacity:1"
     d="m 275.14001,469.2075 c -0.0711,2.12242 0.48132,4.21916 1.589,6.031 1.4718,2.83062 3.6885,5.20569 6.411,6.869 2.5,1.6 15.5,8.6 30.5,7.6 15,-1 37.916,-5.9 46.458,-10.951 8.542,-5.051 19.01463,-10.24118 21.6756,-14.57418 2.661,-4.333 2.3664,-3.97482 2.3664,-3.97482 -0.028,5.205 -6,8 -14,13 -6.382,3.989 -26.218,11.5 -31,13"
     id="Pfad_545" />
  <path
     style="fill:none;fill-opacity:0.4;stroke:#42210b;stroke-opacity:0.4"
     d="m 519.14001,478.2075 c 1.123,0 12.968,-7.95 15.72,-11.864 1.995,-2.837 3.546,-4.955 4.69,-6.88 a 15.834,15.834 0 0 0 2.443,-7.361 c 0,0 -1.587,8.052 -4.853,13.1 -3.266,5.048 -14.853,13 -14.853,13 h -3.147"
     id="Pfad_546" />
  <path
     style="opacity:0.5;fill:#42210b;fill-opacity:1;stroke:#42210b;stroke-width:1.35039;stroke-dasharray:none;stroke-opacity:1"
     d="m 284.79432,563.29167 c 7.87471,1.71541 19.28606,1.69843 27.85811,6.41739 8.57205,4.71896 19.04668,14.45635 28.08813,22.99142 9.04145,8.53508 13.05478,11.53594 16.17823,15.78023 3.12345,4.2443 16.95467,13.04218 16.95467,13.04218 0,0 20.52462,-1.44992 35.24885,-2.0256 4.15176,-0.1618 40.60169,2.74967 53.98745,10.71979 0,0 -18.2588,-8.27584 -30.12602,-9.93136 -11.86723,-1.65553 -27.38767,-1.65463 -38.34316,-0.82687 -10.34765,0.78128 -21.90992,0.82687 -21.90992,0.82687 0,0 -3.65114,-3.03215 -14.15491,-12.27431 -10.50378,-9.24216 -30.40184,-28.28696 -30.40184,-28.28696 0,0 -9.28187,-8.31964 -13.40345,-10.77521 -4.12157,-2.45558 -29.98134,-5.65757 -29.98134,-5.65757"
     id="Pfad_547" />
  <path
     d="m 226.28454,436.19383 c -4.86328,0.0293 -10.39454,0.63867 -15.64453,2.51367 -13.99999,5 -23,12 -25,15 -2,3 -3,7 -1,10 2,3 2.8064,3.17984 7.40039,3.08984 a 43.27,43.27 0 0 0 8.59961,-1.08984 c 1,0 1e-5,-13 9,-15 8.99999,-2 12,-2 17,-4 5,-2 13.00086,-4.00016 16.25586,-5.91016 3.255,-1.90999 -1.25586,-3.08984 -2.25586,-3.08984 0,0 -6.25001,-1.5625 -14.35547,-1.51367 z"
     style="fill:#fcd6ce"
     id="path5" />
  <path
     d="m 311.26696,434.89695 c -5.17478,0.0835 -11.98411,0.99805 -18.87304,3.81055 a 98.291,98.291 0 0 0 -23.75391,14 c -4,3 -5,9 -5,12 0,6.25399 12.485,4.94 12,3 -1,-4 0.448,-7 0,-7 0,0 2.389,0.089 5,0 2.611,-0.089 5.00024,-0.99908 9.36523,-3.20508 4.365,-2.206 12.63478,-5.79492 19.63477,-8.79492 6.99999,-3 11,-4 13,-5 2,-1 3,-3 2,-5 a 14.093,14.093 0 0 0 -5,-3 c -1.3125,-0.4375 -4.34822,-0.87549 -8.37305,-0.81055 z"
     style="fill:#fcd6ce"
     id="path4" />
  <path
     d="m 470.64001,454.7075 c -7.071,0 -17,5 -24,10 -7,5 -16,13.00001 -20,19 -4,5.99999 -2,9 -2,9 0,0 4.3064,3.60078 13.1523,0.30078 8.846,-3.3 15.8477,-8.30078 16.8477,-9.30078 1,-1 11,-8 14,-10 3,-2 5,-4 6,-7 1,-3 2,-7.91503 1,-9.45703 -1,-1.542 -2,-2.54297 -5,-2.54297 z"
     style="fill:#fcd6ce"
     id="path3" />
  <path
     id="Pfad_554"
     data-name="Pfad 554"
     d="m 146.14001,477.2075 c -25.5,2.5 -56.168995,4.259 -65.999995,5 -9.831,0.741 -28.5,0.427 -36.343,2.48 -7.843,2.053 -7.755,26.482 -7.755,26.482 0,0 -1.37,20.539 6.36,23.67 7.73,3.131 29.038,5.248 29.038,5.248 0,0 45.282995,10.077 69.699995,12.12"
     fill="#ffffff"
     stroke="#666666"
     stroke-miterlimit="10"
     stroke-width="1"
     style="stroke-width:1.8;stroke-dasharray:none" />
  <path
     id="Pfad_555"
     data-name="Pfad 555"
     d="m 134.14001,543.2075 c -24.417,-2.043 -55.499995,-5.5 -55.499995,-5.5 0,0 -25.269,-0.87 -33,-4 -7.731,-3.13 -6.6,-22.538 -6.6,-22.538 0,0 -0.084,-23.429 7.755,-25.482 7.839,-2.053 64.344995,1.52 89.344995,1.52 z"
     fill="#fcfcfc"
     stroke="#808080"
     stroke-miterlimit="10"
     stroke-width="0.75"
     style="stroke-width:1.8;stroke-dasharray:none" />
  <path
     id="Pfad_556"
     data-name="Pfad 556"
     d="m 132.14001,517.2075 c 0,0 -2.295,29.779 5.365,33.965 7.66,4.186 29.063,6.3 29.063,6.3 0,0 16.176,2.65 40.719,4.521 24.543,1.871 93.147,0.946 122.129,1.766 28.982,0.82 94.553,9.212 123.307,13.516 28.754,4.304 58.176,20.045 106.7,24.2 48.524,4.155 65.939,-10.587 71.413,-15.537 5.474,-4.95 15.304,-12.731 18.304,-37.731 2.87,-23.912 -9.981,-45.307 -14,-49.752 -5,-5.53 -21,-22.122 -69.653,-23.35 -48.653,-1.228 -79.347,11.183 -108.347,12.289 -29,1.106 -95,2.212 -123.911,-0.175 -28.911,-2.387 -97.089,-10.886 -121.678,-11.736 -24.589,-0.85 -40.924,0 -40.924,0 0,0 -21.487,-0.256 -29.487,3.062 -8,3.318 -9,38.662 -9,38.662 z"
     fill="#ffffff"
     stroke="#666666"
     stroke-miterlimit="10"
     stroke-width="1"
     style="stroke-width:1.8;stroke-dasharray:none" />
  <rect
     id="Rechteck_25"
     data-name="Rechteck 25"
     width="75"
     height="39"
     rx="5.1279998"
     transform="rotate(3.448)"
     fill="#e6e6e6"
     stroke="#808080"
     stroke-miterlimit="10"
     stroke-width="1"
     opacity="0.54"
     x="363.14877"
     y="484.02298"
     style="stroke-width:1.8;stroke-dasharray:none" />
  <path
     id="Pfad_557"
     data-name="Pfad 557"
     d="m 352.28601,527.3165 -3.953,-7.87 2.328,0.082 2.542,5.477 h 0.158 l 2.922,-5.283 2.327,0.082 -4.5,7.572 z m -0.256,3.509 0.2,-5.538 2.091,0.073 -0.2,5.538 z"
     fill="#333333"
     style="stroke-width:1.8;stroke-dasharray:none" />
  <path
     id="Pfad_558"
     data-name="Pfad 558"
     d="m 359.93301,531.1075 0.4,-11.234 2.091,0.073 -0.4,11.235 z m 0,0 0.062,-1.756 8.432,0.3 -0.061,1.756 z m 0.168,-4.747 0.061,-1.756 6.852,0.242 -0.062,1.757 z m 0.167,-4.731 0.061,-1.756 8.433,0.3 -0.062,1.756 z"
     fill="#333333"
     style="stroke-width:1.8;stroke-dasharray:none" />
  <path
     id="Pfad_559"
     data-name="Pfad 559"
     d="m 374.07601,531.7625 a 12.787,12.787 0 0 1 -2.028,-0.23 9.177,9.177 0 0 1 -1.745,-0.521 l 0.349,-1.913 a 12.016,12.016 0 0 0 1.878,0.632 8.533,8.533 0 0 0 1.749,0.256 3.05,3.05 0 0 0 1.606,-0.279 1.09,1.09 0 0 0 0.575,-0.966 q 0.03,-0.846 -1.026,-1.328 l -1.911,-0.9 a 5.4,5.4 0 0 1 -1.968,-1.441 2.778,2.778 0 0 1 -0.641,-1.9 2.717,2.717 0 0 1 1.122,-2.241 4.717,4.717 0 0 1 2.975,-0.7 6.668,6.668 0 0 1 2.188,0.43 5.745,5.745 0 0 1 1.8,1.13 l -1.5,1.389 a 5.82,5.82 0 0 0 -1.285,-0.858 3.206,3.206 0 0 0 -1.259,-0.318 2.135,2.135 0 0 0 -1.3,0.291 1.144,1.144 0 0 0 -0.491,0.961 1.112,1.112 0 0 0 0.284,0.79 2.836,2.836 0 0 0 0.879,0.638 l 1.721,0.844 a 6.148,6.148 0 0 1 2.011,1.461 2.783,2.783 0 0 1 -0.585,4.1 5.984,5.984 0 0 1 -3.398,0.673 z"
     fill="#333333"
     style="stroke-width:1.8;stroke-dasharray:none" />
  <path
     id="Pfad_560"
     data-name="Pfad 560"
     d="m 380.97001,526.3685 0.09,-2.268 12.2,0.478 -0.089,2.269 z m 4.724,5.4 0.5,-12.661 2.342,0.092 -0.5,12.661 z"
     fill="#333333"
     style="stroke-width:1.8;stroke-dasharray:none" />
  <path
     d="m 632.90371,615.42625 c 0,0 -38.6272,12.83205 -76.2442,26.83203 -37.6169,13.99999 -54.1988,19.87102 -98.2988,34 -44.1,14.12899 -31.3934,19.77868 -65.9004,28.38867 -34.50695,8.60999 -44.26859,2.41134 -42.0996,10.61133 6.076,22.96098 -1.52292,27.67265 8.91407,49.64063 10.61499,22.34097 21.55963,27.32776 23.84763,40.84375 2.288,13.51598 135.0928,-16.63655 157.9258,-18.06055 22.833,-1.424 71.2395,-18.86553 83.6465,-21.64453 12.407,-2.779 44.4386,-9.7793 48.0996,-14.7793 3.661,-4.99999 -11.455,-33.22235 -16.252,-51.61133 -4.797,-18.38898 -15.0226,-81.0527 -23.6386,-84.2207 z"
     style="fill:#fcd6ce"
     id="path2" />
  <path
     d="m 155.06188,557.29539 c -1.1136,0.003 -2.07226,0.2057 -2.69726,0.79102 -1.16502,1.05236 -1.33863,1.30611 -0.87695,2.80664 2.15299,3.31399 10.15235,13.61538 20.15234,19.23437 9.99999,5.619 28.58202,12.34282 36.79102,14.13281 8.20899,1.79 19.20898,0.85157 20.20898,0.85157 1,0 2.86172,-2.60281 1.20898,-3.35547 -9.70821,-4.42114 -21.52856,-10.48963 -30.81445,-15.39258 -9.00264,-4.75338 -15.62305,-8.41211 -15.62305,-8.41211 0,0 -6.13688,-6.47736 -6.79687,-7.74023 -0.60769,-1.16278 -10.83789,-1.95704 -13.83789,-1.95704 -2.0625,0 -5.26491,-0.96501 -7.71485,-0.95898 z"
     style="fill:#fcd6ce"
     id="path1" />
</svg>
